<svg xmlns="http://www.w3.org/2000/svg" width="690" height="873" viewBox="0 0 182.5626 230.98201"><path d="m83.464 33.605 12.53-12.53a.955.955 0 0 1 1.353 0 .955.955 0 0 1 0 1.354L84.818 34.96a.955.955 0 0 1-1.354 0 .955.955 0 0 1 0-1.354z" style="display:inline;fill:#00a4e3;stroke-width:.345866;stroke-linecap:round;stroke-linejoin:round"/><path d="m83.44 36.337 5.587-5.587a.955.955 0 0 1 1.354 0 .955.955 0 0 1 0 1.354l-5.587 5.587a.955.955 0 0 1-1.354 0 .955.955 0 0 1 0-1.354z" style="display:inline;fill:#77c4a3;stroke-width:.244564;stroke-linecap:round;stroke-linejoin:round"/><path d="m83.363 39.122 5.588-5.588a.955.955 0 0 1 1.354 0 .955.955 0 0 1 0 1.354l-5.588 5.588a.955.955 0 0 1-1.354 0 .955.955 0 0 1 0-1.354z" style="display:inline;fill:#0090d2;stroke-width:.244564;stroke-linecap:round;stroke-linejoin:round"/><path d="M83.464 86.728 95.994 74.2a.955.955 0 0 1 1.353 0 .955.955 0 0 1 0 1.354l-12.529 12.53a.955.955 0 0 1-1.354 0 .955.955 0 0 1 0-1.355z" style="display:inline;fill:#ef7c1c;stroke-width:.345866;stroke-linecap:round;stroke-linejoin:round"/><path d="m83.464 89.436 12.53-12.529a.955.955 0 0 1 1.353 0 .955.955 0 0 1 0 1.354l-12.529 12.53a.955.955 0 0 1-1.354 0 .955.955 0 0 1 0-1.355z" style="display:inline;fill:#996cac;stroke-width:.345866;stroke-linecap:round;stroke-linejoin:round"/><path d="m84.233 160.31 5.588-5.588a.955.955 0 0 1 1.354 0 .955.955 0 0 1 0 1.354l-5.588 5.588a.955.955 0 0 1-1.354 0 .955.955 0 0 1 0-1.354z" style="display:inline;fill:#00a84d;stroke-width:.244564;stroke-linecap:round;stroke-linejoin:round"/><path d="m90.405 198.968-5.588 5.587a.955.955 0 0 1-1.354 0 .955.955 0 0 1 0-1.354l5.588-5.587a.955.955 0 0 1 1.354 0 .955.955 0 0 1 0 1.354z" style="display:inline;fill:#178c72;stroke-width:.244564;stroke-linecap:round;stroke-linejoin:round"/><g style="display:inline"><path d="M-54.341 66.064h8.86a.478.478 0 1 1 0 .957h-8.86a.478.478 0 1 1 0-.957z" style="opacity:1;fill:#77c4a3;fill-opacity:1;stroke-width:.172933;stroke-linecap:round;stroke-linejoin:round" transform="rotate(-45 67 -66.855) scale(2)"/></g><path d="M89.068 15.17v206.493l2.647-.28V15.17Z" style="color:#000;fill:#0052a4;fill-opacity:.996078;stroke-width:.890738"/><path d="M95.816 107.629a1.876 1.876 0 1 1-3.752 0 1.876 1.876 0 0 1 3.752 0z" style="color:#000;fill:#fff;stroke-width:.79375;stroke-linecap:round;stroke-linejoin:round" transform="translate(-3.615 70.139)"/><path d="M93.94 105.355a2.278 2.278 0 0 0-2.272 2.274c0 1.25 1.02 2.273 2.271 2.273a2.28 2.28 0 0 0 2.274-2.273 2.28 2.28 0 0 0-2.274-2.274zm0 .795c.821 0 1.48.657 1.48 1.479 0 .822-.659 1.478-1.48 1.478a1.472 1.472 0 0 1-1.48-1.478c0-.822.658-1.479 1.48-1.479z" style="color:#000;fill:#0052a4;fill-opacity:.996078;stroke-linecap:round;stroke-linejoin:round" transform="translate(-3.615 70.139)"/><g style="font-weight:600;font-size:7.7474px;font-family:&quot;Myriad Pro&quot;;letter-spacing:0;word-spacing:0;display:inline;fill:#ef7c1c;stroke-width:1.16211"><path d="M81.195 433.583c.27.178.798.349 1.41.349 1.247 0 1.96-.674 1.96-1.526-.008-.682-.496-1.14-1.108-1.256v-.015c.62-.217.93-.65.93-1.178 0-.658-.527-1.231-1.573-1.231-.597 0-1.162.193-1.449.387l.217.69c.21-.14.62-.318 1.03-.318.558 0 .806.286.806.635 0 .496-.558.697-.992.697h-.433v.698h.433c.581 0 1.147.255 1.147.852 0 .395-.287.806-1.015.806-.48 0-.953-.194-1.147-.31z" style="font-size:7.74742px" transform="translate(-4.956 -344.367)"/></g><g style="font-weight:600;font-size:7.7474px;font-family:&quot;Myriad Pro&quot;;letter-spacing:0;word-spacing:0;display:inline;fill:#996cac;stroke-width:1.16211"><path d="M84.367 435.617h-2.611l-.326 2.541c.194-.023.403-.046.69-.046 1 0 1.425.38 1.425.96 0 .597-.534.915-1.092.915-.457 0-.891-.148-1.108-.264l-.194.72c.264.148.752.295 1.34.295 1.233 0 2.03-.782 2.03-1.743 0-.612-.278-1.038-.658-1.278-.333-.225-.783-.326-1.224-.326-.147 0-.248.008-.357.023l.148-1.007h1.937z" style="font-size:7.74742px" transform="translate(-4.956 -344.367)"/></g><path d="M-54.341 66.064h8.86a.478.478 0 1 1 0 .957h-8.86a.478.478 0 1 1 0-.957z" style="fill:#00a84d;stroke-width:.172933;stroke-linecap:round;stroke-linejoin:round" transform="rotate(-45 -108.716 -139.623) scale(2)"/><path d="M13.001 82.345a1.241 1.241 0 0 1-1.241 1.242 1.241 1.241 0 0 1-1.241-1.242 1.241 1.241 0 0 1 1.24-1.241 1.241 1.241 0 0 1 1.242 1.241z" style="color:#000;fill:#fff;stroke-width:.525212;stroke-linecap:round;stroke-linejoin:round" transform="matrix(2 0 0 2 66.886 -117.768)"/><path d="M11.76 80.842c-.828 0-1.504.676-1.504 1.504 0 .827.676 1.504 1.504 1.504.827 0 1.504-.677 1.504-1.504 0-.828-.677-1.504-1.504-1.504zm0 .525c.543 0 .978.435.978.979a.974.974 0 0 1-.978.978.974.974 0 0 1-.979-.978c0-.544.435-.979.979-.979z" style="color:#000;fill:#000;stroke-linecap:round;stroke-linejoin:round" transform="matrix(2 0 0 2 66.886 -117.768)"/><g style="font-weight:600;font-size:7.7474px;font-family:&quot;Myriad Pro&quot;;letter-spacing:0;word-spacing:0;display:inline;fill:#00a84d;stroke-width:1.16211"><path d="M85.013 403.667v-.79h-2.06v-.016l.433-.38c.884-.813 1.519-1.526 1.519-2.409 0-.821-.542-1.526-1.658-1.526-.635 0-1.185.224-1.55.519l.28.674c.255-.194.627-.418 1.076-.418.659 0 .899.395.899.844-.008.666-.566 1.27-1.75 2.37l-.597.55v.582z" style="font-size:7.74742px" transform="translate(-4.956 -344.367)"/></g><g style="font-weight:600;font-size:7.7474px;font-family:&quot;Myriad Pro&quot;;letter-spacing:0;word-spacing:0;display:inline;fill:#00a4e3;stroke-width:1.16211"><path d="M84.383 378.303v-1.278h.65v-.72h-.65v-3.037H83.26l-2.061 3.137v.62h2.285v1.278zm-2.27-1.998v-.016l.93-1.379c.155-.279.286-.535.441-.852h.031c-.015.302-.03.589-.03.875v1.372z" style="font-size:7.74742px" transform="translate(-4.956 -344.367)"/></g><path d="M92.888 29.031a2.483 2.483 0 0 1-2.482 2.483 2.483 2.483 0 0 1-2.483-2.483 2.483 2.483 0 0 1 2.483-2.483 2.483 2.483 0 0 1 2.482 2.483z" style="color:#000;fill:#fff;stroke-width:1.05042;stroke-linecap:round;stroke-linejoin:round"/><path d="M90.406 26.023a3.016 3.016 0 0 0-3.008 3.008 3.016 3.016 0 0 0 3.008 3.008 3.016 3.016 0 0 0 3.008-3.008 3.016 3.016 0 0 0-3.008-3.008zm0 1.051c1.088 0 1.957.87 1.957 1.957 0 1.088-.87 1.957-1.957 1.957a1.949 1.949 0 0 1-1.957-1.957c0-1.087.87-1.957 1.957-1.957z" style="color:#000;fill:#000;stroke-linecap:round;stroke-linejoin:round"/><g style="font-size:4.93888px;font-family:&quot;KoPubDotum Bold&quot;;letter-spacing:0;word-spacing:0;display:inline;fill:#77c4a3;stroke-width:.716052"><path d="M65.734 37.863q.336 0 .623.065.291.064.503.182.208.119.326.292.124.173.124.395 0 .227-.124.4-.118.173-.326.291-.212.119-.503.178-.287.06-.628.06-.34 0-.627-.06-.286-.06-.494-.178-.212-.118-.33-.291-.114-.173-.114-.4 0-.217.118-.39.124-.173.336-.297.212-.118.499-.182.286-.065.617-.065zm0 .44q-.43 0-.701.128-.272.129-.272.356 0 .232.272.366.277.138.701.138.435 0 .702-.138.271-.139.271-.366 0-.232-.266-.356-.267-.128-.707-.128zm.015-2.9q.074 0 .104.036.034.03.034.103-.084.77-.558 1.363-.474.588-1.417.9l-.346-.406q.726-.202 1.146-.592.425-.396.548-.929h-1.432v-.474zm.948 2.45v-.607h-.84v-.46h.845v-.518h-.75v-.46h.745v-.587h.558v2.633zM69.32 37.621q-.267 0-.484-.084-.217-.084-.375-.237-.154-.153-.238-.36-.084-.208-.084-.454 0-.238.084-.445.084-.207.238-.36.158-.154.375-.238.217-.089.484-.089.262 0 .479.09.217.083.375.236.153.154.237.361.09.207.09.445 0 .246-.09.454-.084.207-.237.36-.158.154-.375.237-.217.084-.48.084zm0-1.797q-.296 0-.46.187-.157.188-.157.475 0 .281.158.479.163.192.459.192.296 0 .454-.192.163-.198.163-.48 0-.286-.163-.474-.158-.187-.454-.187zm-1.383 2.44 1.343-.015q.114 0 .312-.01.202-.015.434-.035.232-.02.47-.05.236-.029.424-.063v.459q-.46.104-1.101.153-.642.044-1.373.044h-.509Zm3.655-3.038v4.42h-.558v-4.42zM74.407 38.031q.662.045 1.007.272.351.222.351.573 0 .39-.42.622-.42.232-1.22.232-.805 0-1.224-.232-.415-.232-.415-.622 0-.35.34-.573.346-.227.998-.272v-.434h-1.733v-.464h4.074v.464h-1.758zm-.282.415q-.469 0-.74.109-.272.109-.272.316 0 .222.272.321.271.104.74.104.465 0 .736-.104.277-.099.277-.321 0-.207-.277-.316-.271-.109-.736-.109zM72.56 35.34h3.131v.469h-1.24q.05.173.198.291.148.119.36.198.208.084.455.133.252.05.504.08l-.336.404q-.218-.034-.445-.084-.222-.05-.424-.128-.208-.074-.376-.178-.168-.109-.271-.252-.119.143-.287.247-.163.104-.365.183-.198.079-.42.133-.218.05-.435.08l-.34-.4q.296-.05.553-.11.261-.059.464-.138.197-.084.33-.192.134-.114.179-.267H72.56zM77.672 37.503q-.267 0-.484-.084-.218-.084-.376-.232-.153-.148-.237-.35-.084-.208-.084-.45 0-.237.084-.44.084-.202.237-.35.158-.149.376-.233.217-.089.484-.089.261 0 .479.09.217.083.375.232.153.148.237.35.089.203.089.44 0 .242-.089.45-.084.202-.237.35-.158.148-.375.232-.218.084-.48.084zm0-1.753q-.297 0-.46.182-.158.183-.158.46 0 .271.158.459.163.183.46.183.296 0 .454-.183.163-.188.163-.46 0-.276-.163-.459-.158-.182-.454-.182zm.884 2.113q.335 0 .622.065.286.064.499.182.207.119.326.292.118.173.118.395 0 .227-.118.4-.119.173-.326.291-.213.119-.5.178-.286.06-.626.06-.341 0-.628-.06-.281-.06-.489-.178-.207-.118-.325-.291-.114-.173-.114-.4 0-.217.118-.39.119-.173.331-.297.213-.118.494-.182.287-.065.618-.065zm0 .44q-.43 0-.697.128-.266.129-.266.356 0 .232.266.366.272.138.697.138.434 0 .696-.138.267-.139.267-.366 0-.232-.262-.356-.262-.128-.701-.128zm1.432-3.077v.943h.568v.47h-.568v1.25h-.563v-2.663z"/></g><g style="font-size:4.93888px;font-family:&quot;KoPubDotum Bold&quot;;letter-spacing:0;word-spacing:0;display:inline;fill:#0090d2;stroke-width:.720292"><path d="M74.041 41.904v.835h1.961v.474h-4.074v-.474h1.54v-.835zm-.079 1.64q.796 0 1.215.247.425.246.425.656 0 .415-.42.657-.42.247-1.22.247-.805 0-1.224-.247-.415-.242-.415-.657 0-.41.42-.656.42-.247 1.22-.247zm0 .434q-.469 0-.74.119-.272.113-.272.345 0 .252.272.366.271.114.74.114.465 0 .736-.114.277-.114.277-.366 0-.232-.277-.345-.271-.119-.736-.119zm1.472-3.017q.074 0 .104.034.034.03.034.104-.01.217-.034.46-.02.241-.045.444-.024.207-.049.34l-.02.129h-.543q.054-.267.079-.519.03-.252.035-.518h-2.638v-.474zM76.98 40.827h1.378v.415H76.98zm-.593.667h2.583v.415h-2.583zm1.29 1.96q-.554 0-.855-.202-.296-.207-.296-.494 0-.286.296-.489.296-.207.854-.207.554 0 .85.207.301.203.301.49 0 .286-.301.493-.301.203-.85.203zm0-1.012q-.262 0-.42.084-.158.084-.158.232 0 .163.158.237.158.07.42.07.256 0 .414-.07.163-.074.163-.237 0-.148-.163-.232-.158-.084-.415-.084zm2.72.025h-.528v1.166h-.553v-2.786h.553v1.146h.529zm-1.995 1.195q.77 0 1.17.237.401.232.401.603 0 .37-.4.602-.4.237-1.17.237-.771 0-1.171-.237-.4-.232-.4-.602t.4-.603q.4-.237 1.17-.237zm0 .425q-.44 0-.706.104-.262.103-.262.31 0 .213.262.312.267.104.706.104.445 0 .702-.1.262-.098.262-.315 0-.213-.262-.311-.257-.104-.702-.104z"/></g><path d="M92.888 82.705a2.483 2.483 0 0 1-2.482 2.482 2.483 2.483 0 0 1-2.483-2.482 2.483 2.483 0 0 1 2.483-2.483 2.483 2.483 0 0 1 2.482 2.483z" style="color:#000;fill:#fff;stroke-width:1.05042;stroke-linecap:round;stroke-linejoin:round"/><path d="M90.406 79.697a3.016 3.016 0 0 0-3.008 3.008 3.016 3.016 0 0 0 3.008 3.008 3.016 3.016 0 0 0 3.008-3.008 3.016 3.016 0 0 0-3.008-3.008zm0 1.051c1.088 0 1.957.87 1.957 1.957 0 1.087-.87 1.957-1.957 1.957a1.949 1.949 0 0 1-1.957-1.957c0-1.087.87-1.957 1.957-1.957z" style="color:#000;fill:#000;stroke-linecap:round;stroke-linejoin:round"/><g style="font-size:6.70792px;font-family:&quot;KoPubDotum Medium&quot;;letter-spacing:0;word-spacing:0;display:inline;fill:#666;stroke-width:1.00619"><path d="M102.584 98.395h-1.737q.007.275.221.496.215.222.53.383.308.167.67.275.363.1.678.14l-.335.396q-.248-.04-.55-.127-.302-.087-.59-.228-.289-.134-.544-.322-.248-.195-.389-.456-.14.234-.369.422-.228.181-.503.322-.282.141-.597.242-.309.094-.617.147l-.335-.402q.348-.054.717-.161.37-.108.678-.269.302-.16.496-.375.201-.215.215-.483h-1.73v-.436h4.091zm-1.77 1.415v.892h2.447v.457h-5.44v-.457h2.449v-.892zm-2.402 2.932q0-.483.53-.792.536-.308 1.603-.308 1.066 0 1.59.315.53.315.53.791 0 .47-.524.785-.523.315-1.596.315t-1.603-.315q-.53-.315-.53-.791zm.583 0q0 .328.403.51.409.187 1.147.187.704 0 1.113-.188.416-.18.416-.503 0-.335-.409-.523-.41-.188-1.12-.188-.738 0-1.147.188-.403.188-.403.517zM104.543 101.427q-.08 0-.114-.027-.027-.033-.027-.114v-1.637q0-.08.027-.107.033-.034.114-.034h3.253v-.999h-3.408v-.443h3.79q.08 0 .108.034.033.027.033.107v1.603q0 .08-.033.114-.027.027-.108.027h-3.26v1.033h3.59v.443h-1.859v1.107h2.469v.456h-5.46v-.456h2.448v-1.107zM109.909 101.031q-.06 0-.074-.013-.013-.02-.013-.088l.074-2.629q0-.074.02-.1.027-.027.087-.027h2.556v.456h-2.147l-.094 1.65q.154-.208.436-.322.289-.12.65-.12.29 0 .544.106.255.101.45.309.187.208.302.523.114.309.114.731 0 .37-.114.678-.108.308-.309.53-.208.221-.496.342-.282.127-.631.127-.637 0-1.073-.335-.436-.335-.47-.973h.53q.06.41.342.638.282.221.691.221.423 0 .704-.329.289-.328.289-.892 0-.617-.282-.926-.282-.308-.704-.308-.336 0-.59.174-.255.168-.336.463l-.02.054q-.007.02-.02.033-.013.014-.04.02-.02.007-.054.007zM113.726 98.127h2.488q.081 0 .115.033.04.027.04.107-.034.698-.228 1.322-.195.624-.53 1.16-.329.537-.792.98-.456.442-1.006.764l-.43-.369q1.034-.543 1.664-1.442.638-.905.725-2.093h-2.046zm5.138 2.528h-.879v3.08h-.536v-5.95h.536v2.387h.88z"/></g><g style="font-size:6.70792px;font-family:&quot;KoPubDotum Bold&quot;;letter-spacing:0;word-spacing:0;display:inline;fill:#666;stroke-width:1.00619"><path d="M100.585 83.577q1.08 0 1.65.322.577.315.577.838 0 .53-.57.845-.57.315-1.657.315-1.093 0-1.664-.315-.563-.315-.563-.845 0-.523.57-.838.57-.322 1.657-.322zm0 .576q-.637 0-1.006.148-.37.148-.37.43 0 .301.37.435.369.141 1.006.141.63 0 1-.14.375-.135.375-.437 0-.281-.375-.429-.37-.148-1-.148zm-2.126-4.226h4.252v.638h-1.683q.067.234.268.409.201.168.49.295.281.12.617.201.342.08.684.121l-.456.55q-.295-.047-.604-.127-.302-.08-.577-.195-.281-.114-.51-.268-.228-.155-.368-.35-.161.195-.39.35-.22.147-.496.268-.268.114-.57.201-.295.08-.59.121l-.463-.543q.402-.067.751-.155.356-.093.63-.22.269-.128.45-.29.181-.16.242-.368h-1.677zm4.896 3.341h-5.534v-.644h2.375v-.745h.785v.745h2.374zM108.272 82.114h-3.139v.812h3.475v.637h-1.791v.926h2.394v.637h-5.54v-.637h2.354v-.926h-1.449q-.107 0-.147-.04-.04-.04-.04-.148v-1.703q0-.101.04-.141.04-.047.147-.047h3.146v-.819h-3.34v-.637h3.89q.1 0 .141.047.047.04.047.14v1.711q0 .108-.047.148-.04.04-.14.04zM110.714 82.671v-.309q0-.1.033-.134.034-.04.141-.04h.208q.37-.007.63-.174.27-.168.27-.59 0-.383-.236-.57-.228-.195-.597-.195-.389 0-.603.207-.208.202-.249.665h-.758q.007-.711.463-1.107.456-.403 1.16-.403.303 0 .584.087.289.081.51.255.222.168.356.43.134.261.134.61 0 .436-.228.731t-.671.39q.503.087.751.409.248.315.248.811 0 .383-.147.664-.148.275-.39.456-.24.182-.55.262-.301.087-.623.087-.745 0-1.194-.422-.45-.423-.463-1.181h.745q.047.51.275.738.234.228.664.228.443 0 .684-.221.241-.222.241-.664 0-.229-.08-.383-.08-.16-.208-.261-.134-.094-.309-.141-.174-.047-.362-.06h-.255q-.107 0-.14-.034-.034-.034-.034-.141zM116.342 80.122q.1 0 .14.047.048.04.048.14-.08 1.416-.711 2.503-.624 1.086-1.825 1.851l-.63-.503q1.093-.604 1.677-1.449.583-.852.644-1.945h-1.986v-.644zm1.033 5.661v-6.01h.751v2.341h.819v.678h-.819v2.991z"/></g><g style="font-size:6.70792px;font-family:&quot;KoPubDotum Medium&quot;;letter-spacing:0;word-spacing:0;display:inline;fill:#666;stroke-width:1.00619"><path d="M102.584 62.45h-1.737q.007.276.221.497.215.222.53.383.308.167.67.275.363.1.678.14l-.335.396q-.248-.04-.55-.127-.302-.087-.59-.228-.289-.134-.544-.322-.248-.195-.389-.456-.14.234-.369.422-.228.181-.503.322-.282.141-.597.242-.309.094-.617.147l-.335-.402q.348-.054.717-.161.37-.107.678-.268.302-.161.496-.376.201-.215.215-.483h-1.73v-.436h4.091zm-1.77 1.416v.892h2.447v.457h-5.44v-.457h2.449v-.892zm-2.402 2.932q0-.483.53-.792.536-.308 1.603-.308 1.066 0 1.59.315.53.315.53.791 0 .47-.524.785-.523.315-1.596.315t-1.603-.315q-.53-.315-.53-.791zm.583 0q0 .328.403.51.409.187 1.147.187.704 0 1.113-.188.416-.18.416-.503 0-.335-.409-.523-.41-.188-1.12-.188-.738 0-1.147.188-.403.188-.403.517zM106.67 62.116q.073 0 .1.033.033.027.033.107-.12 1.12-.818 1.879-.691.75-1.878 1.14l-.336-.369q.483-.14.892-.356.416-.214.738-.503.322-.288.53-.657.208-.369.282-.812H104.1v-.462zm1.763-.275v1.509h.839v.47h-.839v1.576h-.523V61.84zm-3.897 3.877h3.756q.08 0 .108.033.033.027.033.108v1.965h-.53v-1.65h-3.367z"/></g><g style="font-size:6.70792px;font-family:&quot;KoPubDotum Bold&quot;;letter-spacing:0;word-spacing:0;display:inline;fill:#666;stroke-width:1.00619"><path d="M101.229 49.084q-.416-.281-.798-.69-.376-.41-.584-.872-.054.18-.188.409-.134.221-.328.45-.188.234-.423.455-.228.215-.456.383l-.63-.497q.845-.516 1.227-1.254.389-.745.389-1.63V44.55h.798v1.328q-.007.825.376 1.536.389.705 1.174 1.16zm1.093 1.248V44.33h.758v6.003zM106.937 48.112q1.047 0 1.597.329.55.328.55.831 0 .503-.55.832-.55.329-1.597.329-1.046 0-1.596-.329t-.55-.832q0-.503.55-.831.55-.33 1.596-.33zm0 .577q-.597 0-.966.154-.362.148-.362.43 0 .288.362.435.37.148.966.148.604 0 .96-.148.362-.14.362-.436 0-.288-.362-.436-.356-.147-.96-.147zm-2.723-3.421h3.106v.603h-1.16q.033.255.174.477.147.214.355.382.208.174.456.295.249.12.497.181l-.443.53q-.436-.154-.825-.43-.39-.274-.59-.603-.195.403-.597.731-.396.329-.866.537l-.53-.543q.282-.08.544-.228.261-.148.476-.35.215-.2.356-.449.147-.248.194-.53h-1.147zm.65-.966h1.839v.577h-1.838zm2.476 1.75h.912v-1.73h.765v3.756h-.765v-1.415h-.912z"/></g><path d="M101.381 31.036q-.415-.282-.798-.69-.375-.41-.583-.873-.054.181-.188.41-.134.22-.329.449-.188.235-.422.456-.229.215-.457.382l-.63-.496q.845-.517 1.227-1.254.39-.745.39-1.63v-1.288h.798v1.328q-.007.825.375 1.536.39.704 1.174 1.16zm1.852-4.756v6.004h-.758v-3.555h-1.2v-.685h1.2V26.28zM106.741 28.313q-1.033 0-1.617-.282-.583-.282-.583-.751 0-.456.583-.745.59-.295 1.617-.295 1.026 0 1.61.295.59.289.59.745 0 .47-.59.751-.584.282-1.61.282zm0-1.536q-.617 0-1 .134-.375.127-.375.369 0 .221.382.362.383.134.993.134.604 0 .986-.134.39-.14.39-.362 0-.242-.383-.37-.383-.133-.993-.133zm2.77 2.448h-2.367v.456h1.489q.1 0 .14.047.048.04.048.141v1.16q0 .108-.047.148-.04.04-.141.04h-3.113v.463h3.428v.564h-4.099q-.107 0-.147-.04-.04-.04-.04-.148v-1.167q0-.1.04-.141.04-.047.147-.047h3.113v-.45h-3.3v-.57h1.697v-.456h-2.382v-.583h5.534zM110.028 27.924q0-.329.114-.61.12-.29.329-.504.214-.208.503-.329.295-.12.65-.12.403 0 .725.154.329.148.543.41h1.248v-.645h.765v3.576h-.765v-1.007h-1.187q-.215.296-.557.463-.342.168-.772.168-.355 0-.65-.114-.289-.114-.503-.322-.208-.208-.329-.49-.114-.288-.114-.63zm3.173-.376q.02.094.027.188.013.094.013.188 0 .08-.007.16-.007.074-.02.142h.926v-.678zm-1.57 1.295q.382 0 .61-.262.229-.268.229-.657 0-.39-.228-.651-.229-.268-.61-.268-.397 0-.618.261-.221.262-.221.658 0 .389.221.657.221.262.617.262zm3.086 1.254q.1 0 .14.047.048.04.048.14v2.027h-.758v-1.583h-3.408v-.63z" style="font-size:6.70792px;font-family:&quot;KoPubDotum Bold&quot;;letter-spacing:0;word-spacing:0;display:inline;fill:#666;stroke-width:1.00619"/><path d="M95.816 107.629a1.876 1.876 0 1 1-3.752 0 1.876 1.876 0 0 1 3.752 0z" style="color:#000;fill:#fff;stroke-width:.79375;stroke-linecap:round;stroke-linejoin:round" transform="translate(-3.62 -42.874)"/><path d="M93.94 105.355a2.278 2.278 0 0 0-2.272 2.274c0 1.25 1.02 2.273 2.271 2.273a2.28 2.28 0 0 0 2.274-2.273 2.28 2.28 0 0 0-2.274-2.274zm0 .795c.821 0 1.48.657 1.48 1.479 0 .822-.659 1.478-1.48 1.478a1.472 1.472 0 0 1-1.48-1.478c0-.822.658-1.479 1.48-1.479z" style="color:#000;fill:#0052a4;fill-opacity:.996078;stroke-linecap:round;stroke-linejoin:round" transform="translate(-3.62 -42.874)"/><path d="M95.816 107.629a1.876 1.876 0 1 1-3.752 0 1.876 1.876 0 0 1 3.752 0z" style="color:#000;fill:#fff;stroke-width:.79375;stroke-linecap:round;stroke-linejoin:round" transform="translate(-3.596 -7.194)"/><path d="M93.94 105.355a2.278 2.278 0 0 0-2.272 2.274c0 1.25 1.02 2.273 2.271 2.273a2.28 2.28 0 0 0 2.274-2.273 2.28 2.28 0 0 0-2.274-2.274zm0 .795c.821 0 1.48.657 1.48 1.479 0 .822-.659 1.478-1.48 1.478a1.472 1.472 0 0 1-1.48-1.478c0-.822.658-1.479 1.48-1.479z" style="color:#000;fill:#0052a4;fill-opacity:.996078;stroke-linecap:round;stroke-linejoin:round" transform="translate(-3.596 -7.194)"/><path d="M-54.341 66.064h8.86a.478.478 0 1 1 0 .957h-8.86a.478.478 0 1 1 0-.957z" style="fill:#00a4e3;stroke-width:.172933;stroke-linecap:round;stroke-linejoin:round" transform="rotate(-45 -22.8 -104.02) scale(2)"/><path d="M13.001 82.345a1.241 1.241 0 0 1-1.241 1.242 1.241 1.241 0 0 1-1.241-1.242 1.241 1.241 0 0 1 1.24-1.241 1.241 1.241 0 0 1 1.242 1.241z" style="color:#000;fill:#fff;stroke-width:.525212;stroke-linecap:round;stroke-linejoin:round" transform="matrix(2 0 0 2 66.875 -46.588)"/><path d="M11.76 80.842c-.828 0-1.504.676-1.504 1.504 0 .827.676 1.504 1.504 1.504.827 0 1.504-.677 1.504-1.504 0-.828-.677-1.504-1.504-1.504zm0 .525c.543 0 .978.435.978.979a.974.974 0 0 1-.978.978.974.974 0 0 1-.979-.978c0-.544.435-.979.979-.979z" style="color:#000;fill:#000;stroke-linecap:round;stroke-linejoin:round" transform="matrix(2 0 0 2 66.875 -46.588)"/><g style="font-weight:600;font-size:7.7474px;font-family:&quot;Myriad Pro&quot;;letter-spacing:0;word-spacing:0;display:inline;fill:#00a4e3;stroke-width:1.16211"><path d="M66.303 469.655v-1.279h.65v-.72h-.65v-3.037H65.18l-2.061 3.138v.62h2.285v1.278zm-2.27-2v-.015l.93-1.379c.155-.279.286-.534.441-.852h.031c-.015.302-.03.589-.03.876v1.37z" style="font-size:7.74742px" transform="translate(14.59 -340.014)"/></g><g style="font-size:6.70792px;font-family:&quot;KoPubDotum Bold&quot;;letter-spacing:0;word-spacing:0;display:inline;fill:#666;stroke-width:1.00619"><path d="M98.556 115.693h3.971v.637H99.14v.711h3.447v.63h-1.744v.665h2.368v.637h-5.534v-.637h2.361v-.664H98.55q-.107 0-.147-.04-.034-.04-.034-.148v-1.603q0-.1.04-.141.04-.047.148-.047zm1.885 3.649q1.08 0 1.65.322.577.315.577.839 0 .53-.57.845-.57.315-1.657.315-1.094 0-1.664-.315-.563-.316-.563-.845 0-.524.57-.839.57-.322 1.657-.322zm0 .577q-.637 0-1.006.147-.37.148-.37.43 0 .302.37.436.369.14 1.006.14.63 0 1-.14.375-.134.375-.436 0-.282-.376-.43-.369-.147-1-.147zM104.177 115.914h1.932v.63h-1.382v2.879l.55-.007q.141 0 .309-.014l.329-.04q.16-.02.301-.04t.228-.04v.643q-.1.027-.281.054-.175.027-.383.047-.2.02-.416.033-.214.014-.389.014-.067.007-.2.007h-.604q-.108 0-.148-.04-.034-.04-.034-.148v-3.79q0-.1.04-.14.04-.048.148-.048zm3.18-.268v1.885h.597v-1.992h.73v6.01h-.73v-3.274h-.597v2.992h-.725v-5.621zM113.488 117.27v-.94h-2.69v.94zm-3.254-1.577h3.81q.101 0 .141.047.047.04.047.14v1.839q0 .107-.047.147-.04.04-.14.04h-3.817q-.108 0-.148-.033-.033-.04-.033-.147v-1.845q0-.1.04-.141.04-.047.147-.047zm1.624 4.615v-1.187h-2.482v-.644h5.534v.644h-2.28v1.187zm-1.61 1.127q-.107 0-.148-.04-.033-.04-.033-.148v-1.65h.764v1.194h3.59v.644z"/></g><path d="M-54.341 66.064h8.86a.478.478 0 1 1 0 .957h-8.86a.478.478 0 1 1 0-.957z" style="fill:#cd7c2f;stroke-width:.172933;stroke-linecap:round;stroke-linejoin:round" transform="rotate(-45 1.028 -94.053) scale(2)"/><path d="M13.001 82.345a1.241 1.241 0 0 1-1.241 1.242 1.241 1.241 0 0 1-1.241-1.242 1.241 1.241 0 0 1 1.24-1.241 1.241 1.241 0 0 1 1.242 1.241z" style="color:#000;fill:#fff;stroke-width:.525212;stroke-linecap:round;stroke-linejoin:round" transform="matrix(2 0 0 2 66.807 -26.82)"/><path d="M11.76 80.842c-.828 0-1.504.676-1.504 1.504 0 .827.676 1.504 1.504 1.504.827 0 1.504-.677 1.504-1.504 0-.828-.677-1.504-1.504-1.504zm0 .525c.543 0 .978.435.978.979a.974.974 0 0 1-.978.978.974.974 0 0 1-.979-.978c0-.544.435-.979.979-.979z" style="color:#000;fill:#000;stroke-linecap:round;stroke-linejoin:round" transform="matrix(2 0 0 2 66.807 -26.82)"/><g style="font-weight:600;font-size:7.7474px;font-family:&quot;Myriad Pro&quot;;letter-spacing:0;word-spacing:0;display:inline;fill:#cd7c2f;stroke-width:1.16211"><path d="M33.574 464.388a2.177 2.177 0 0 0-.48.024c-.721.054-1.333.302-1.79.743-.527.496-.876 1.279-.876 2.247 0 1.247.674 2.177 1.898 2.177 1.07 0 1.774-.837 1.774-1.797 0-1.023-.674-1.643-1.541-1.643-.504 0-.884.202-1.132.488h-.023c.124-.697.628-1.34 1.69-1.464.185-.023.34-.031.48-.023zm-1.248 4.478c-.627 0-.937-.542-.953-1.208a.65.65 0 0 1 .062-.303.926.926 0 0 1 .821-.519c.558 0 .876.411.876 1 0 .604-.318 1.03-.806 1.03z" style="font-size:7.74742px" transform="translate(46.957 -320.247)"/></g><g style="font-size:6.70792px;font-family:&quot;KoPubDotum Bold&quot;;letter-spacing:0;word-spacing:0;display:inline;fill:#666;stroke-width:1.00619"><path d="M98.519 135.198h3.97v.638h-3.387v.71h3.448v.631h-1.744v.664h2.368v.638H97.64v-.638H100v-.664h-1.49q-.106 0-.147-.04-.033-.04-.033-.148v-1.603q0-.1.04-.14.04-.048.148-.048zm1.885 3.65q1.08 0 1.65.321.577.316.577.839 0 .53-.57.845-.57.315-1.657.315-1.094 0-1.664-.315-.564-.315-.564-.845 0-.523.57-.839.57-.321 1.658-.321zm0 .576q-.638 0-1.007.148-.369.148-.369.43 0 .301.37.435.368.141 1.006.141.63 0 .999-.14.376-.135.376-.437 0-.281-.376-.429-.369-.148-1-.148zM107.56 137.687v-1.724h-2.615v1.724zm-3.172-2.361h3.73q.1 0 .14.047.047.04.047.14v2.624q0 .107-.047.147-.04.04-.14.04h-.503v1.422h1.408v.644h-5.54v-.644h1.448v-1.422h-.55q-.107 0-.147-.033-.034-.04-.034-.148v-2.63q0-.1.04-.14.04-.047.148-.047zm2.489 2.998h-1.208v1.422h1.208zM114.222 135.05v1.235h.771v.644h-.771v1.482h-.765v-3.36zm-1.322 5.314.027-1.074h-1.247l.013 1.074zm1.463-1.074h-.664l-.047 1.074h.791v.63h-4.286v-.63h.791l-.033-1.074h-.684v-.637h4.132zm-3.294-1.147q-.362 0-.657-.114-.295-.114-.51-.315-.208-.201-.322-.476-.114-.282-.114-.61 0-.323.114-.598.114-.275.322-.476.215-.201.51-.315.295-.121.657-.121.356 0 .65.12.296.115.51.316.209.201.323.476.12.275.12.597 0 .329-.12.61-.114.276-.322.477-.215.201-.51.315-.295.114-.65.114zm0-2.381q-.402 0-.624.248-.214.248-.214.624 0 .369.214.624.222.248.624.248.403 0 .617-.248.222-.255.222-.624 0-.376-.222-.624-.214-.248-.617-.248z"/></g><path d="m8.381 112.84 2.794-2.794a.478.478 0 1 1 .677.677l-2.794 2.794a.478.478 0 1 1-.677-.677z" style="fill:#fabe00;stroke-width:.122282;stroke-linecap:round;stroke-linejoin:round" transform="matrix(2 0 0 2 66.707 -25.203)"/><path d="M13.033 110.342a1.241 1.241 0 0 1-1.241 1.242 1.241 1.241 0 0 1-1.242-1.242 1.241 1.241 0 0 1 1.242-1.241 1.241 1.241 0 0 1 1.24 1.241z" style="color:#000;fill:#fff;stroke-width:.525212;stroke-linecap:round;stroke-linejoin:round" transform="matrix(2 0 0 2 66.707 -25.203)"/><path d="M11.791 108.838c-.827 0-1.504.676-1.504 1.504 0 .827.677 1.504 1.504 1.504.828 0 1.504-.677 1.504-1.504 0-.828-.676-1.504-1.504-1.504zm0 .525c.544 0 .979.435.979.979a.974.974 0 0 1-.979.978.974.974 0 0 1-.978-.978c0-.544.434-.979.978-.979z" style="color:#000;fill:#000;stroke-linecap:round;stroke-linejoin:round" transform="matrix(2 0 0 2 66.707 -25.203)"/><g style="font-size:4.93888px;font-family:&quot;KoPubDotum Bold&quot;;letter-spacing:0;word-spacing:0;display:inline;fill:#178c72;stroke-width:.720292"><path d="M76.445 206.658q.336 0 .623.064.291.064.503.183.208.119.326.291.124.173.124.396 0 .227-.124.4-.118.172-.326.291-.212.119-.503.178-.287.06-.628.06-.34 0-.627-.06-.286-.06-.494-.178-.212-.119-.33-.291-.114-.173-.114-.4 0-.218.118-.39.124-.174.336-.297.213-.119.5-.183.286-.064.616-.064zm0 .44q-.43 0-.7.128-.273.128-.273.356 0 .232.272.365.277.138.701.138.435 0 .702-.138.271-.138.271-.365 0-.232-.266-.356-.267-.128-.707-.128zm.015-2.9q.074 0 .104.035.035.03.035.104-.084.77-.559 1.363-.474.588-1.417.899l-.346-.405q.726-.203 1.146-.593.425-.395.548-.928H74.54v-.474Zm.949 2.45v-.607h-.84v-.46h.844v-.518h-.75v-.46h.746v-.587h.558v2.632zM79.656 203.961h1.738v.425h-1.738zm-.736.707h3.21v.43h-1.254q.108.236.498.4.396.157 1.033.237l-.326.43q-.588-.105-.978-.272-.385-.173-.548-.396-.163.213-.534.386-.365.168-.963.281l-.346-.425q.652-.079 1.008-.237.356-.163.46-.405h-1.26zm3.65 2.168h-1.68v.75h-.568v-.75h-1.827v-.464h4.075Zm-3.438 1.521q-.079 0-.108-.03-.025-.03-.025-.108v-1.111h.573v.775h2.637v.474z"/></g><g style="font-size:4.93888px;font-family:&quot;KoPubDotum Bold&quot;;letter-spacing:0;word-spacing:0;display:inline;fill:#77c4a3;stroke-width:.74169"><path d="M67.957 195.506q.336 0 .622.065.292.064.504.182.208.119.326.292.124.173.124.395 0 .227-.124.4-.118.173-.326.291-.212.119-.504.178-.286.06-.627.06-.34 0-.627-.06t-.494-.178q-.212-.118-.33-.291-.114-.173-.114-.4 0-.217.118-.39.124-.173.336-.297.212-.118.499-.182.286-.065.617-.065zm0 .44q-.43 0-.701.128-.272.129-.272.356 0 .232.272.365.276.139.701.139.435 0 .701-.139.272-.138.272-.365 0-.232-.267-.356-.266-.128-.706-.128zm.015-2.9q.074 0 .104.035.034.03.034.104-.084.77-.558 1.363-.474.588-1.417.9l-.346-.406q.726-.202 1.146-.593.424-.395.548-.928H66.05v-.474zm.948 2.45v-.607h-.84v-.46h.845v-.518h-.75v-.46h.745v-.587h.558v2.632zM71.543 195.264q-.267 0-.484-.084-.218-.084-.376-.237-.153-.153-.237-.36-.084-.208-.084-.455 0-.237.084-.444.084-.208.237-.36.158-.154.376-.238.217-.089.484-.089.261 0 .479.09.217.083.375.236.153.153.237.36.09.208.09.445 0 .247-.09.455-.084.207-.237.36-.158.153-.375.237-.218.084-.48.084zm0-1.797q-.297 0-.46.187-.158.188-.158.474 0 .282.158.48.163.192.46.192.296 0 .454-.193.163-.197.163-.479 0-.286-.163-.474-.158-.187-.454-.187zm-1.383 2.44 1.343-.015q.114 0 .311-.01.203-.015.435-.035.232-.02.47-.05.236-.029.424-.064v.46q-.46.103-1.101.153-.643.044-1.373.044h-.51Zm3.655-3.038v4.42h-.559v-4.42zM76.63 195.674q.662.045 1.007.272.35.222.35.573 0 .39-.419.622-.42.232-1.22.232-.805 0-1.225-.232-.414-.232-.414-.622 0-.35.34-.573.346-.227.998-.272v-.434h-1.734v-.465h4.075v.465H76.63zm-.282.415q-.469 0-.74.109-.272.108-.272.316 0 .222.271.32.272.105.741.105.464 0 .736-.104.277-.099.277-.321 0-.208-.277-.316-.272-.109-.736-.109zm-1.565-3.106h3.13v.469h-1.239q.05.173.198.291.148.119.36.198.208.084.455.133.252.05.503.08l-.335.404q-.218-.035-.445-.084-.222-.05-.425-.128-.207-.074-.375-.178-.168-.109-.272-.252-.118.143-.286.247-.163.104-.366.183-.197.079-.42.133-.217.05-.434.079l-.34-.4q.296-.05.552-.109.262-.059.465-.138.197-.084.33-.193.134-.113.178-.266h-1.234zM79.894 195.146q-.266 0-.484-.084-.217-.084-.375-.232-.153-.148-.237-.351-.084-.207-.084-.45 0-.236.084-.439.084-.202.237-.35.158-.149.375-.233.218-.089.484-.089.262 0 .48.09.217.083.375.231.153.149.237.351.089.203.089.44 0 .242-.09.449-.083.203-.236.35-.158.149-.376.233-.217.084-.479.084zm0-1.753q-.296 0-.459.182-.158.183-.158.46 0 .271.158.459.163.183.46.183.296 0 .454-.183.163-.188.163-.46 0-.276-.163-.459-.158-.182-.455-.182zm.884 2.113q.336 0 .623.065.286.064.499.182.207.119.325.292.119.173.119.395 0 .227-.119.4-.118.173-.325.291-.213.119-.5.178-.286.06-.627.06-.34 0-.627-.06-.281-.06-.489-.178-.207-.118-.326-.291-.113-.173-.113-.4 0-.217.118-.39.119-.173.331-.297.213-.118.494-.182.286-.065.617-.065zm0 .44q-.43 0-.696.128-.267.129-.267.356 0 .232.267.365.272.139.696.139.435 0 .697-.139.266-.138.266-.365 0-.232-.261-.356-.262-.128-.702-.128zm1.433-3.077v.943h.568v.47h-.568v1.25h-.563v-2.663z"/></g><g style="font-size:4.93888px;font-family:&quot;KoPubDotum Bold&quot;;letter-spacing:0;word-spacing:0;display:inline;fill:#fabe00;stroke-width:.74169"><path d="M69.23 200.43q-.598-.172-.969-.384-.37-.218-.563-.534-.197.311-.578.543-.375.228-.938.38l-.37-.41q.35-.083.637-.192.291-.113.499-.267.207-.148.32-.335.12-.193.124-.44v-.227h.617v.222q-.004.464.42.77.425.302 1.136.475zm.508.91h-1.743v1.555h-.568v-1.556h-1.763v-.469h4.074zM71.294 200.89q-.277 0-.499-.094-.217-.094-.37-.257-.154-.158-.233-.37-.079-.217-.079-.46 0-.241.08-.454.078-.212.232-.375.153-.158.37-.252t.499-.094q.276 0 .494.094.222.094.37.252.153.163.232.375.084.213.084.455 0 .242-.084.459-.079.212-.232.37-.153.163-.375.257-.218.094-.49.094zm0-1.882q-.301 0-.464.203-.158.202-.158.499 0 .291.163.498.163.208.459.208.296 0 .46-.208.162-.207.162-.498 0-.297-.163-.5-.163-.202-.46-.202zm2.42-.533v3.26h-.553v-3.26zm-2.84 4.336q-.079 0-.109-.03-.024-.029-.024-.108v-1.343h.563v1.007h2.514v.474zM77.3 199.873v-.44h-1.981v.44zm-2.534.32v-1.683h.553v.469h1.98v-.47h.559v1.685q0 .079-.035.108-.03.03-.104.03H74.9q-.079 0-.108-.03-.025-.03-.025-.108zm3.585.969h-1.684v.854h-.573v-.854h-1.817v-.47h4.074zm-3.432 1.65q-.08 0-.109-.03-.024-.03-.024-.109v-1.2h.563v.864h2.642v.474zM80.702 201.112q.336 0 .623.065.286.064.499.182.207.119.325.292.119.173.119.395 0 .227-.119.4-.118.173-.325.291-.213.119-.5.178-.286.06-.627.06-.34 0-.627-.06-.281-.06-.489-.178-.207-.118-.326-.291-.113-.173-.113-.4 0-.218.118-.39.119-.173.331-.297.213-.118.494-.182.286-.065.617-.065zm0 .44q-.43 0-.696.128-.267.129-.267.356 0 .232.267.365.272.139.696.139.435 0 .697-.139.266-.138.266-.365 0-.232-.261-.356-.262-.128-.702-.128zm-1.718-.904q-.08 0-.109-.03-.025-.03-.025-.108v-1.719q0-.074.03-.104.03-.034.109-.034h1.965v.469h-1.55v1.052l.612-.005q.138 0 .33-.01.193-.015.396-.035.207-.02.395-.044.188-.03.321-.06v.455q-.109.025-.291.054-.183.03-.405.055-.223.024-.465.044-.242.015-.469.015-.054 0-.192.005h-.652zm2.632.43v-2.603h.558v.85h.578v.469h-.578v1.284z"/></g><g style="font-size:6.70792px;font-family:&quot;KoPubDotum Bold&quot;;letter-spacing:0;word-spacing:0;display:inline;fill:#666;stroke-width:1.00619"><path d="M100.96 196.377q1.047 0 1.597.329t.55.832q0 .503-.55.831-.55.33-1.596.33-1.047 0-1.597-.33-.55-.328-.55-.831 0-.503.55-.832.55-.329 1.597-.329zm0 .577q-.596 0-.965.154-.363.148-.363.43 0 .288.363.436.369.147.966.147.603 0 .959-.147.362-.141.362-.436 0-.289-.362-.436-.356-.148-.96-.148zm-2.723-3.421h3.106v.604h-1.16q.033.255.174.476.147.215.355.382.208.175.456.295.249.121.497.182l-.443.53q-.436-.155-.825-.43-.389-.275-.59-.604-.195.403-.597.732-.396.328-.866.536l-.53-.543q.282-.08.544-.228.261-.148.476-.349.215-.201.356-.45.147-.248.194-.53h-1.147Zm.65-.966h1.839v.577h-1.838zm2.476 1.75h.912v-1.73h.765v3.757h-.765v-1.416h-.912zM106.528 196.377q1.047 0 1.59.329.543.329.543.832 0 .503-.543.831-.543.33-1.59.33-1.046 0-1.59-.33-.543-.328-.543-.831 0-.503.543-.832.544-.329 1.59-.329zm0 .577q-.597 0-.96.154-.355.148-.355.43 0 .288.356.436.362.147.96.147.603 0 .952-.147.355-.141.355-.436 0-.289-.355-.436-.35-.148-.953-.148zm-2.556-1.16v-1.523q0-.1.04-.141.04-.047.148-.047h1.899v-.664h-2.087v-.624h2.643q.1 0 .141.047.047.04.047.14v1.497q0 .107-.04.147-.04.04-.141.04h-1.898v.685h.838q.195 0 .463-.014.268-.02.543-.046.275-.02.53-.054t.43-.067v.624q-.175.033-.43.06-.255.027-.556.054-.296.027-.61.047-.316.013-.598.013-.054 0-.201.007h-.315q-.175 0-.356.007h-.302q-.107 0-.147-.04-.04-.04-.04-.148zm3.81.57v-3.77h.745v.67h.771v.645h-.77v.758h.77v.637h-.77v1.06zM112.626 192.882q.1 0 .14.047.047.04.047.141v2.073q0 .107-.047.147-.04.04-.14.04h-1.845v1.222l.919-.007q.221 0 .483-.02.268-.02.53-.047.261-.027.49-.054.234-.034.395-.067V197q-.154.026-.396.06-.234.027-.516.054-.275.027-.584.053-.301.02-.583.02-.08 0-.295.008h-1.02q-.107 0-.148-.04-.04-.04-.04-.148v-2.12q0-.1.04-.14.04-.048.148-.048h1.865v-1.174h-2.053v-.644zm1.2 5.709v-5.997h.765v5.997z"/></g><g style="font-size:6.70792px;font-family:&quot;KoPubDotum Medium&quot;;letter-spacing:0;word-spacing:0;display:inline;fill:#666;stroke-width:1.00619"><path d="M97.715 179.328q.738-.497 1.094-1.261.355-.765.355-1.832v-.516h-.993v-.45h2.502v.45h-.966v.503q0 1.013.275 1.724.275.704.98 1.127l-.396.362q-.322-.215-.657-.624-.33-.416-.49-.952-.074.261-.201.523-.128.262-.289.496-.167.235-.362.443-.194.201-.389.342zm4.763 1.489v-5.943h.503v5.943zm-1.18-.282v-3.26h-.987v-.503h.986v-1.798h.523v5.561zM106.69 175.216q.08 0 .108.033.033.027.033.108-.033.697-.235 1.321-.194.624-.53 1.154-.335.537-.791.98-.456.435-1.006.757l-.43-.355q1.04-.544 1.67-1.442.638-.906.732-2.093h-2.053v-.463zm1.389 5.601v-5.943h.537v5.943zM110.36 175.048h3.857v.436h-3.468v1.033h3.528v.443h-1.798v.805h2.455v.456h-5.446v-.456h2.448v-.805h-1.576q-.088 0-.114-.027-.027-.027-.027-.107v-1.637q0-.08.027-.107.033-.034.114-.034zm-.282 4.736q0-.496.55-.818.55-.33 1.583-.33 1.026 0 1.576.33.557.322.557.818 0 .503-.55.825-.55.322-1.583.322t-1.583-.322q-.55-.322-.55-.825zm.583-.007q0 .362.423.55.423.195 1.127.195.677 0 1.113-.195.436-.188.436-.55 0-.342-.436-.537-.436-.194-1.113-.194-.704 0-1.127.194-.423.188-.423.537z"/></g><path d="m84.126 163.114 5.587-5.588a.955.955 0 0 1 1.354 0 .955.955 0 0 1 0 1.354l-5.587 5.588a.955.955 0 0 1-1.354 0 .955.955 0 0 1 0-1.354z" style="display:inline;fill:#dbd350;stroke-width:.244564;stroke-linecap:round;stroke-linejoin:round"/><path d="M92.873 157.807a2.483 2.483 0 0 1-2.483 2.482 2.483 2.483 0 0 1-2.483-2.482 2.483 2.483 0 0 1 2.483-2.483 2.483 2.483 0 0 1 2.483 2.483z" style="color:#000;fill:#fff;stroke-width:1.05042;stroke-linecap:round;stroke-linejoin:round"/><path d="M90.39 154.799a3.016 3.016 0 0 0-3.007 3.008 3.016 3.016 0 0 0 3.008 3.007 3.016 3.016 0 0 0 3.007-3.007 3.016 3.016 0 0 0-3.007-3.008zm0 1.05c1.088 0 1.958.87 1.958 1.958 0 1.087-.87 1.957-1.957 1.957a1.949 1.949 0 0 1-1.957-1.957c0-1.088.87-1.957 1.957-1.957z" style="color:#000;fill:#000;stroke-linecap:round;stroke-linejoin:round"/><g style="font-size:4.93888px;font-family:&quot;KoPubDotum Bold&quot;;letter-spacing:0;word-spacing:0;display:inline;fill:#dbd350;stroke-width:.702492"><path d="M67.781 164.507q-.76 0-1.19-.282-.43-.286-.43-.756 0-.227.109-.414.113-.188.32-.326.208-.139.51-.213.3-.079.681-.079.375 0 .677.08.3.073.508.212.208.138.321.326.114.187.114.414 0 .47-.435.756-.43.282-1.185.282zm0-1.6q-.454 0-.736.148-.277.148-.277.414 0 .267.282.415.282.148.731.148.444 0 .726-.148.286-.148.286-.415 0-.266-.281-.414-.282-.149-.731-.149zm2.04 2.444h-1.744v1.477h-.573v-1.477h-1.758v-.47h4.075zM70.818 164.21q0 .257.035.48.035.217.109.38.069.158.177.251.114.09.267.09.148 0 .257-.09.114-.093.183-.251.074-.163.108-.38.04-.223.04-.48 0-.252-.04-.469-.034-.222-.108-.38-.07-.158-.183-.247-.109-.094-.257-.094-.153 0-.267.094-.108.089-.177.247-.074.158-.11.38-.034.217-.034.47zm1.734.005q-.005.874-.326 1.284-.316.41-.82.41t-.825-.41q-.32-.41-.32-1.284 0-.874.32-1.284.321-.41.825-.41t.825.41q.32.41.32 1.284zm.681 2.613v-4.42h.559v4.42zM76.034 162.501v.603q0 .222.079.435.084.212.227.395.143.182.34.326.198.143.435.222l-.355.42q-.321-.163-.603-.395-.281-.238-.42-.49-.044.129-.143.267-.099.134-.237.267-.133.128-.296.252-.163.118-.331.212l-.44-.375q.544-.267.845-.657.301-.395.306-.87v-.612zm2.084-.093v3.25h-.553v-3.25zm-2.825 4.336q-.079 0-.109-.03-.024-.03-.024-.108v-1.29h.563v.954h2.499v.474zM78.587 164.314q.504-.222.82-.593.321-.375.326-.82v-.414h.588v.405q-.005.207.084.405.089.192.242.36.148.168.34.301.198.134.415.208l-.345.39q-.321-.148-.593-.36-.272-.213-.435-.48-.148.297-.395.529-.247.227-.602.434zm2.39-1.274h.89v-.632h.558v2.316h-.558v-1.205h-.89zm-1.392 3.758q-.08 0-.109-.03-.03-.029-.03-.108v-.874q0-.074.03-.104.03-.035.109-.035h2.242v-.316h-2.38v-.434h2.83q.074 0 .103.034.035.03.035.104v.864q0 .08-.035.109-.03.03-.103.03h-2.233v.326h2.47v.434z"/></g><g style="font-weight:600;font-size:7.7474px;font-family:&quot;Myriad Pro&quot;;letter-spacing:0;word-spacing:0;display:inline;fill:#00a84d;stroke-width:1.16211"><path d="M15.605 448.314v-.79h-2.06v-.016l.433-.38c.884-.813 1.519-1.526 1.519-2.41 0-.82-.543-1.526-1.658-1.526-.635 0-1.186.225-1.55.52l.28.674c.255-.194.627-.419 1.076-.419.659 0 .899.395.899.845-.008.666-.566 1.27-1.751 2.37l-.597.55v.582z" style="font-size:7.74742px" transform="translate(60.746 -287.97)"/></g><g style="font-size:3.37406px;font-family:&quot;KoPubDotum Bold&quot;;letter-spacing:0;word-spacing:0;display:inline;fill:#00a84d;stroke-width:.50611"><path d="M78.182 157.403v.348q0 .169.06.317.064.148.166.267.104.121.236.209.131.087.273.135l-.24.287q-.097-.048-.199-.112-.1-.064-.199-.142-.094-.074-.175-.158-.078-.088-.128-.179-.03.091-.105.189-.07.095-.169.182-.094.091-.202.169-.108.078-.21.128l-.3-.256q.156-.071.297-.172.142-.102.25-.23.108-.128.172-.283.064-.159.064-.344v-.355zm1.42-.064v1.812h-.378v-.958h-.607v-.33h.607v-.524zm-1.026 1.802q.23 0 .425.044.2.044.345.125.141.08.222.199.085.118.085.27 0 .155-.085.273-.08.118-.222.2-.145.08-.345.12-.195.041-.428.041-.233 0-.429-.04-.195-.04-.337-.122-.145-.08-.226-.199-.078-.118-.078-.273 0-.149.081-.267.085-.118.23-.202.145-.081.34-.125.196-.044.422-.044zm0 .3q-.293 0-.479.088-.185.088-.185.243 0 .159.185.25.19.094.48.094.296 0 .478-.094.186-.095.186-.25 0-.159-.182-.243-.182-.088-.483-.088zM82.413 158.675q-.409-.118-.662-.263-.253-.148-.384-.364-.135.212-.395.37-.257.156-.641.26l-.253-.28q.24-.057.435-.13.2-.078.34-.183.142-.101.22-.23.081-.131.084-.3v-.155h.422v.152q-.003.317.287.526.29.206.776.324zm.347.621h-1.19v1.063h-.389v-1.063h-1.204v-.32h2.783z"/></g><g style="font-size:6.70792px;font-family:&quot;KoPubDotum Bold&quot;;letter-spacing:0;word-spacing:0;display:inline;fill:#666;stroke-width:1.00619"><path d="M99.802 154.819v.818q0 .302.108.59.114.289.308.537.195.248.463.443.269.194.59.302l-.482.57q-.436-.222-.819-.537-.382-.322-.57-.664-.06.174-.195.362-.134.181-.322.362-.18.175-.402.343-.221.16-.45.288l-.596-.51q.737-.362 1.147-.892.409-.537.416-1.18v-.832zm2.831-.128v4.414h-.751v-4.414zm-3.837 5.89q-.107 0-.147-.04-.034-.04-.034-.148v-1.75h.765v1.294h3.394v.644zM103.27 157.28q.685-.301 1.114-.804.436-.51.443-1.114v-.563h.798v.55q-.007.281.114.55.12.261.329.49.2.227.463.409.268.18.563.281l-.47.53q-.436-.201-.805-.49-.368-.288-.59-.65-.201.402-.536.718-.336.308-.819.59zm3.247-1.73h1.208v-.859h.758v3.146h-.758v-1.636h-1.208zm-1.892 5.105q-.107 0-.147-.04-.04-.04-.04-.148v-1.188q0-.1.04-.14.04-.047.147-.047h3.046v-.43h-3.233v-.59h3.843q.1 0 .141.047.047.04.047.14v1.175q0 .107-.047.147-.04.04-.14.04h-3.033v.443h3.354v.59zM110.106 154.839h3.97v.637h-3.387v.711h3.448v.63h-1.744v.665h2.368v.637h-5.534v-.637h2.361v-.664H110.1q-.107 0-.147-.04-.034-.04-.034-.148v-1.603q0-.101.04-.141.04-.047.148-.047zm1.885 3.649q1.08 0 1.65.322.577.315.577.838 0 .53-.57.846-.57.315-1.657.315-1.094 0-1.664-.315-.563-.316-.563-.846 0-.523.57-.838.57-.322 1.657-.322zm0 .577q-.638 0-1.006.147-.37.148-.37.43 0 .302.37.436.368.14 1.006.14.63 0 1-.14.375-.134.375-.436 0-.282-.376-.43-.369-.147-1-.147z"/></g><path d="M183.844 227.086c-.663 0-1.203.54-1.203 1.203 0 .662.54 1.203 1.203 1.203.662 0 1.203-.54 1.203-1.203 0-.662-.54-1.203-1.203-1.203zm0 .42a.78.78 0 0 1 .783.783.78.78 0 0 1-.783.783.78.78 0 0 1-.783-.783.78.78 0 0 1 .783-.783z" style="color:#000;fill:red;stroke-linecap:round;stroke-linejoin:round"/><g style="display:inline"><path d="M15.044 12.562a3.284 3.284 0 0 1-3.284 3.283 3.284 3.284 0 0 1-3.284-3.283 3.284 3.284 0 0 1 3.284-3.284 3.284 3.284 0 0 1 3.284 3.284z" style="opacity:1;fill:#0052a4;stroke-width:1.85208;stroke-linecap:round;stroke-linejoin:round" transform="matrix(1.3813 0 0 1.3813 74.163 -5.46)"/><path d="M11.599 14.43h.707v-3.862H11.7l-.945.463.124.553.708-.357h.012z" style="font-weight:600;font-size:5.94343px;font-family:&quot;Myriad Pro&quot;;letter-spacing:0;word-spacing:0;fill:#fff;stroke-width:.891513" transform="matrix(1.3813 0 0 1.3813 74.163 -5.46)"/></g><g style="display:inline"><path d="M15.044 12.562a3.284 3.284 0 0 1-3.284 3.283 3.284 3.284 0 0 1-3.284-3.283 3.284 3.284 0 0 1 3.284-3.284 3.284 3.284 0 0 1 3.284 3.284z" style="opacity:1;fill:#0052a4;stroke-width:1.85208;stroke-linecap:round;stroke-linejoin:round" transform="matrix(1.3813 0 0 1.3813 74.047 200.56)"/><path d="M11.599 14.43h.707v-3.862H11.7l-.945.463.124.553.708-.357h.012z" style="font-weight:600;font-size:5.94343px;font-family:&quot;Myriad Pro&quot;;letter-spacing:0;word-spacing:0;fill:#fff;stroke-width:.891513" transform="matrix(1.3813 0 0 1.3813 74.047 200.56)"/></g></svg>